<svg version="1" xmlns="http://www.w3.org/2000/svg" width="1133.333" height="1133.333" viewBox="0 0 850.000000 850.000000"><path d="M186 279.9c-2.5.5-5.8 1.1-7.5 1.5-15 2.8-29.7 9.6-42 19.4-6.2 5-23.2 20.8-27.4 25.4-3.7 4.3-4.1 2.6-4.1-18.3 0-17.6-.2-20.4-1.8-22.3-1-1.4-2.7-2.1-4.2-2-1.4 0-8.1.4-15 .8s-14.1.9-16 1.1c-1.9.2-8.2.7-14 1-5.8.4-13 .9-16 1.1-8.4.5-28.3 1.7-30.3 1.8-1.6 0-1.7 1-1.5 9.6l.3 9.5 5 .6c7.2.9 16.9 3.5 21.4 5.9 5.9 2.9 12.6 9.8 15.8 16l2.8 5.5v196.1l-2.6 4.9c-4.4 8.7-13 12.6-30.9 13.9-3.6.3-6.8.5-7.1.5-.4.1-.7 4.4-.6 9.6l.1 9.5 69-.2 69-.3.1-8.8c0-4.9-.4-9.1-.8-9.4-.5-.3-2.7-.7-5-.9-10.2-1-23.7-6.2-29-11.2-3.5-3.3-6.3-8.5-7.3-13.7-.4-2.2-.7-41.4-.7-87.1v-83.1l4.8-6.9c16.2-22.9 41.4-36.3 67.5-35.9 10 .2 18.1 2.9 25.4 8.5 6 4.5 14.5 14.3 14.6 16.8 0 .7.6 2.3 1.4 3.5.8 1.2 2.4 6.2 3.7 11.2 2.3 9 2.3 9.1 2.4 90.5 0 44.8-.3 83.7-.8 86.3-2.4 13.9-10.7 19.2-32.6 21.1-2.9.3-5.6.8-5.9 1.1-.4.4-.7 4.7-.7 9.6l-.1 8.9h136.1l-.2-9.2c-.2-5-.5-9.3-.7-9.5-.2-.2-2.5-.6-5.2-.8-5.8-.6-17.5-4-22.4-6.5-4.6-2.4-8.5-6.5-10.7-11.5-1.7-3.7-1.8-9.7-2.1-90.9l-.3-87 4.7-6.7c5.5-8 14.7-17.1 22.4-22.2 5.2-3.4 22-11.2 22-10.2 0 .3 1.1 0 2.4-.5 6.4-2.4 22.7-3.3 30-1.6 8.8 2.1 14.7 5.6 21.9 12.9 3.7 3.7 6.7 7.3 6.7 7.9 0 .5.8 2.2 1.8 3.6 1.1 1.5 2.7 5.1 3.6 8.1 3.9 12.1 4.2 19.5 4 103.4-.1 79.7-.1 81.3-2.1 85.8-1.2 2.5-4 6.2-6.2 8.1-5.3 4.5-9.2 5.6-26.5 7.3-2.7.2-5.2.7-5.5 1.1-.3.3-.6 4.6-.7 9.5l-.1 8.9H497v-9.5c0-6.9-.3-9.5-1.2-9.6-.7-.1-2.6-.2-4.3-.4-1.6-.1-5.7-.8-9-1.5-14.3-3-22.1-7.8-25.9-16-2.3-5-2.2 1.4-3-123-.1-31.6-.6-59.1-1-61-.4-1.9-.9-4.4-1.1-5.5-1.3-8.1-6.1-22.8-9.3-28.5-10.8-19.7-27.2-31.2-50.7-35.7-7.3-1.4-30.5-.8-39.4 1.1-11.7 2.4-24.8 7.9-35 14.6-10.9 7.3-13.8 9.6-27.2 22.2C278.4 329 277 330 277 327.8c0-2.8-10-17.5-16.1-23.6-11.3-11.5-22.3-18.3-36.1-22.2-8.1-2.4-30.8-3.5-38.8-2.1zM709.9 279.4c-.2.2-3.1.7-6.4 1.1-7 .8-22.9 5.7-30 9.2-4.6 2.3-16.3 9.8-17.5 11.2-.3.3-2.6 2.3-5.2 4.4-2.6 2.1-8.9 7.8-14 12.7-5.1 4.9-9.8 8.9-10.3 9-.7 0-1-6.6-1-19.6.1-17.3-.1-19.9-1.6-21.9-1.3-1.6-2.7-2.1-5.1-2-1.8.2-8 .6-13.8.9-5.8.4-13 .9-16 1.1-3 .2-10 .7-15.5 1.1-5.5.3-12 .8-14.5.9-2.5.2-9.5.6-15.6 1-6.1.3-12 .8-13 1-1.1.2-2.3.4-2.7.4-.4.1-.6 4.3-.5 9.3l.3 9.3 3.5.3c7 .5 18.1 3.2 22.2 5.3 6.1 3.1 11.5 9 15.1 16.7l3.2 6.7.2 96c.2 107 .5 102-6.6 109.3-4.2 4.3-10.8 6.9-20.1 7.8-9.4 1-11.3 1.2-13.2 1.3-1.6.1-1.8 1.3-1.8 9.6v9.5l69.7-.2 69.6-.3.1-8.9c.1-10.2.5-9.7-10.4-11-6.9-.8-16.6-4.1-21.5-7.3-4.7-3.1-7.3-6.2-9.9-11.8-1.8-3.8-1.9-7.8-2-89.7l-.1-85.8 4.2-6.2c14.4-21.4 39.4-35.1 65.8-36.2 8.2-.4 14.3.4 19.5 2.6 7.5 3.2 10 4.9 16 10.8 9.8 9.8 15 21.7 16.6 38.3.4 4 .7 42.5.7 85.7 0 78.3-.1 78.5-2.2 84.2-3.9 10.1-11.2 14.3-27.1 15.5-3 .2-6.4.6-7.5.8-1.1.2-3.1.4-4.5.4l-2.5.1.3 9.5.3 9.5H844v-9.5c0-6.9-.3-9.5-1.2-9.6-10.7-.7-16.5-2.2-25.6-6.6-7.7-3.7-10.8-7.2-13.1-14.3-.7-2.4-1.2-30.9-1.4-90-.2-47.6-.6-87.5-1-88.6-.3-1.2-.8-3.9-1.1-6-4.7-29.5-22-53.4-44.6-61.6-3.9-1.5-8.2-2.7-15.5-4.5-2.5-.6-30-1.5-30.6-.9z"/></svg>