<?xml version="1.0" standalone="no"?>
<!DOCTYPE svg PUBLIC "-//W3C//DTD SVG 20010904//EN"
 "http://www.w3.org/TR/2001/REC-SVG-20010904/DTD/svg10.dtd">
<svg version="1.0" xmlns="http://www.w3.org/2000/svg"
 width="700.000000pt" height="700.000000pt" viewBox="0 0 700.000000 700.000000"
 preserveAspectRatio="xMidYMid meet">
<metadata>
Created by potrace 1.11, written by Peter Selinger 2001-2013
</metadata>
<g transform="translate(0.000000,700.000000) scale(0.100000,-0.100000)"
fill="#000000" stroke="none">
<path d="M3438 6905 c-2 -1 -61 -5 -133 -9 -71 -3 -139 -8 -150 -10 -11 -2
-51 -7 -90 -11 -38 -4 -72 -8 -76 -10 -3 -2 -28 -7 -55 -11 -27 -3 -58 -8 -69
-10 -11 -2 -33 -7 -50 -10 -227 -41 -562 -157 -823 -286 -560 -276 -1029 -699
-1368 -1233 l-51 -80 407 -3 407 -2 168 -273 c92 -149 187 -301 210 -337 48
-76 225 -361 240 -388 6 -9 48 -78 95 -152 47 -74 90 -142 95 -152 42 -73 97
-159 100 -156 3 3 284 456 658 1058 l245 395 439 3 438 2 24 -35 c13 -19 31
-43 40 -54 9 -10 68 -87 131 -171 63 -84 149 -196 190 -250 41 -54 163 -213
270 -355 107 -141 279 -368 383 -503 103 -136 267 -352 365 -481 97 -128 185
-243 194 -255 16 -20 17 36 18 1042 l0 1062 370 0 c204 0 370 3 370 7 0 17
-240 367 -269 393 -3 3 -31 34 -61 70 -83 100 -182 201 -330 340 -47 45 -173
145 -270 216 -227 167 -481 305 -749 410 -64 25 -125 49 -136 53 -39 16 -191
60 -275 80 -182 43 -299 65 -405 77 -27 3 -61 7 -74 9 -38 7 -418 24 -423 20z"/>
<path d="M6442 3501 c0 -947 4 -1719 8 -1715 17 18 141 263 188 374 88 205
196 563 216 715 3 22 9 63 15 90 5 28 12 79 16 115 4 36 10 79 12 95 9 55 10
563 2 617 -4 29 -10 76 -13 103 -25 268 -125 648 -242 922 -51 120 -131 283
-167 341 -13 20 -26 44 -29 52 -3 8 -6 -761 -6 -1709z"/>
<path d="M539 5178 c-43 -70 -170 -339 -217 -463 -44 -115 -105 -304 -116
-360 -3 -11 -13 -58 -25 -105 -23 -101 -57 -307 -66 -405 -3 -39 -8 -90 -10
-115 -12 -130 -5 -499 11 -601 2 -15 6 -47 9 -70 33 -283 124 -615 247 -903
69 -162 174 -366 188 -366 3 0 5 770 5 1710 0 941 -1 1710 -3 1710 -1 0 -11
-15 -23 -32z"/>
<path d="M3113 3798 c-229 -348 -523 -794 -661 -1006 -133 -203 -167 -250
-175 -242 -3 3 -94 140 -202 305 -109 165 -270 410 -359 545 -88 135 -216 328
-283 430 l-123 185 0 -1122 0 -1123 -374 0 -375 0 54 -82 c163 -251 335 -461
524 -642 41 -39 83 -80 95 -91 12 -11 73 -62 136 -114 470 -379 1039 -627
1645 -716 22 -4 50 -8 63 -10 122 -20 585 -28 732 -12 118 13 215 25 255 33
11 3 36 7 55 10 19 3 76 15 125 26 50 11 97 21 106 23 73 15 284 85 421 139
195 78 354 160 582 301 45 28 276 196 303 220 6 5 37 32 70 60 61 51 296 285
348 345 32 37 138 170 168 211 9 13 32 44 50 69 17 24 58 85 89 135 l57 90
-323 5 -324 5 -324 425 c-178 234 -460 605 -628 825 -167 220 -347 456 -399
525 -52 69 -129 170 -171 225 -42 55 -93 122 -113 148 l-37 49 0 -1101 0
-1101 -427 2 -427 3 0 1123 c0 617 -1 1122 -3 1122 -2 0 -69 -100 -150 -222z"/>
</g>
</svg>
