<?xml version="1.0" encoding="UTF-8" standalone="no"?>
<svg width="70px" height="80px" viewBox="0 0 70 80" version="1.1" xmlns="http://www.w3.org/2000/svg" xmlns:xlink="http://www.w3.org/1999/xlink" xmlns:sketch="http://www.bohemiancoding.com/sketch/ns">
    <!-- Generator: Sketch 3.5.1 (25234) - http://www.bohemiancoding.com/sketch -->
    <title>noun_302020_cc</title>
    <desc>Created with Sketch.</desc>
    <defs></defs>
    <g id="Webpages" stroke="none" stroke-width="1" fill="none" fill-rule="evenodd" sketch:type="MSPage">
        <g id="noun_302020_cc" sketch:type="MSLayerGroup" fill="#000000">
            <g id="Group" sketch:type="MSShapeGroup">
                <path d="M62.378,43.039 L62.378,28.623 C62.97,28.039 63.338,27.228 63.338,26.333 L63.338,20.502 C63.338,16.9 60.456,13.961 56.877,13.864 L56.877,6.371 C56.877,2.858 54.02,-1.13686838e-13 50.506,-1.13686838e-13 L23.594,-1.13686838e-13 C17.824,-1.13686838e-13 13.131,4.694 13.131,10.463 L13.131,13.864 C9.552,13.961 6.671,16.9 6.671,20.502 L6.671,26.333 C6.671,27.227 7.037,28.036 7.627,28.621 L7.627,43.04 C3.237,45.424 0.25,50.077 0.25,55.415 L0.25,78.953 C0.25,79.531 0.719,80 1.297,80 L68.713,80 C69.291,80 69.76,79.531 69.76,78.953 L69.76,55.415 C69.759,50.076 66.771,45.423 62.378,43.039 L62.378,43.039 Z M67.664,59.822 L63.398,59.822 L63.398,55.165 L67.658,55.165 C67.66,55.248 67.664,59.822 67.664,59.822 L67.664,59.822 Z M60.284,42.119 C58.843,41.619 57.297,41.345 55.687,41.345 L51.476,41.345 C54.236,38.095 56.058,34.025 56.508,29.554 C56.508,29.554 60.228,29.549 60.283,29.546 L60.283,42.119 L60.284,42.119 Z M35.003,7.849 C45.768,7.849 54.525,16.607 54.525,27.371 C54.525,38.135 45.767,46.893 35.003,46.893 C24.239,46.893 15.481,38.135 15.481,27.371 C15.481,16.607 24.238,7.849 35.003,7.849 L35.003,7.849 Z M20.561,43.438 C24.392,46.885 29.457,48.987 35.003,48.987 C40.549,48.987 45.614,46.885 49.445,43.438 L52.956,43.438 C48.479,48.631 41.913,51.677 35.003,51.677 C28.092,51.677 21.524,48.631 17.048,43.438 L20.561,43.438 L20.561,43.438 Z M15.996,45.405 C20.614,50.435 27.091,53.466 33.957,53.747 L33.957,77.905 L15.996,77.905 L15.996,45.405 L15.996,45.405 Z M36.051,53.747 C42.917,53.466 49.394,50.435 54.012,45.402 L54.012,77.906 L36.051,77.906 L36.051,53.747 L36.051,53.747 Z M61.244,20.502 L61.244,26.333 C61.244,26.954 60.738,27.46 60.117,27.46 L56.617,27.46 C56.617,27.43 56.619,27.401 56.619,27.371 C56.619,23.182 55.417,19.269 53.346,15.954 L56.696,15.954 C59.203,15.954 61.244,17.994 61.244,20.502 L61.244,20.502 Z M23.594,2.094 L50.506,2.094 C52.864,2.094 54.783,4.012 54.783,6.371 L54.783,13.859 L51.857,13.859 C47.892,8.922 41.812,5.755 35.003,5.755 C28.194,5.755 22.112,8.923 18.148,13.859 L15.232,13.859 L15.225,10.463 C15.225,5.849 18.979,2.094 23.594,2.094 L23.594,2.094 Z M8.764,20.502 C8.764,17.994 10.804,15.954 13.312,15.954 L16.66,15.954 C14.589,19.269 13.387,23.182 13.387,27.371 C13.387,27.401 13.389,27.431 13.389,27.46 L9.891,27.46 C9.269,27.46 8.764,26.954 8.764,26.333 L8.764,20.502 L8.764,20.502 L8.764,20.502 Z M9.72,29.545 C9.777,29.548 13.496,29.554 13.496,29.554 C13.946,34.025 15.768,38.095 18.528,41.345 L14.316,41.345 C12.707,41.345 11.161,41.62 9.72,42.119 L9.72,29.545 L9.72,29.545 Z M2.343,55.415 C2.343,48.95 7.491,43.668 13.902,43.449 L13.902,77.906 L2.343,77.906 L2.343,55.415 L2.343,55.415 Z M56.105,77.906 L56.105,43.449 C61.72,43.642 66.366,47.718 67.432,53.07 L62.351,53.07 C61.773,53.07 61.304,53.539 61.304,54.117 L61.304,60.869 C61.304,61.447 61.773,61.916 62.351,61.916 L67.663,61.916 L67.663,77.906 L56.105,77.906 L56.105,77.906 Z" id="Shape"></path>
                <path d="M50.331,60.973 L39.778,60.973 C39.2,60.973 38.731,61.442 38.731,62.02 L38.731,66.536 C38.731,67.114 39.2,67.583 39.778,67.583 L50.331,67.583 C50.909,67.583 51.378,67.114 51.378,66.536 L51.378,62.02 C51.378,61.441 50.909,60.973 50.331,60.973 L50.331,60.973 Z M49.284,65.488 L40.825,65.488 L40.825,63.066 L49.284,63.066 L49.284,65.488 L49.284,65.488 Z" id="Shape"></path>
                <path d="M48.451,9.808 L52.562,9.808 C53.14,9.808 53.609,9.339 53.609,8.761 L53.609,6.917 C53.609,4.892 51.962,3.245 49.937,3.245 L48.451,3.245 C47.873,3.245 47.404,3.714 47.404,4.292 L47.404,8.761 C47.404,9.339 47.873,9.808 48.451,9.808 L48.451,9.808 Z M49.498,5.338 L49.937,5.338 C50.807,5.338 51.515,6.046 51.515,6.917 L51.515,7.713 L49.497,7.713 L49.497,5.338 L49.498,5.338 Z" id="Shape"></path>
                <path d="M35.003,44.75 C44.366,44.75 51.984,37.324 51.984,28.197 C51.984,23.836 50.215,20.296 46.87,17.96 C43.923,15.903 39.819,14.816 35.003,14.816 C30.186,14.816 26.082,15.903 23.136,17.96 C19.79,20.296 18.021,23.836 18.021,28.197 C18.021,37.324 25.639,44.75 35.003,44.75 L35.003,44.75 Z M24.334,19.677 C26.927,17.867 30.616,16.91 35.002,16.91 C39.388,16.91 43.077,17.867 45.67,19.677 C48.47,21.632 49.89,24.498 49.89,28.197 C49.89,36.17 43.211,42.655 35.002,42.655 C26.793,42.655 20.114,36.169 20.114,28.197 C20.115,24.498 21.534,21.631 24.334,19.677 L24.334,19.677 Z" id="Shape"></path>
                <path d="M37.715,20.643 C37.932,20.674 38.149,20.71 38.364,20.75 C38.428,20.762 38.493,20.768 38.556,20.768 C39.051,20.768 39.491,20.416 39.584,19.913 C39.689,19.344 39.314,18.798 38.746,18.692 C38.502,18.646 38.257,18.606 38.011,18.571 C37.437,18.488 36.907,18.886 36.825,19.459 C36.743,20.032 37.142,20.561 37.715,20.643 L37.715,20.643 Z" id="Shape"></path>
                <path d="M41.678,21.834 C45.199,23.383 45.94,26.554 45.94,28.942 C45.94,29.52 46.409,29.989 46.987,29.989 L46.988,29.989 C47.566,29.989 48.035,29.52 48.034,28.942 C48.034,24.685 46.076,21.48 42.521,19.917 C41.992,19.684 41.375,19.924 41.141,20.454 C40.908,20.984 41.148,21.602 41.678,21.834 L41.678,21.834 Z" id="Shape"></path>
            </g>
        </g>
    </g>
</svg>