<?xml version="1.0" encoding="UTF-8" standalone="no"?>
<svg width="94px" height="100px" viewBox="0 0 94 100" version="1.1" xmlns="http://www.w3.org/2000/svg" xmlns:xlink="http://www.w3.org/1999/xlink" xmlns:sketch="http://www.bohemiancoding.com/sketch/ns">
    <!-- Generator: Sketch 3.5.1 (25234) - http://www.bohemiancoding.com/sketch -->
    <title>cup</title>
    <desc>Created with Sketch.</desc>
    <defs></defs>
    <g id="Page-1" stroke="none" stroke-width="1" fill="none" fill-rule="evenodd" sketch:type="MSPage">
        <g id="cup" sketch:type="MSLayerGroup" transform="translate(4.000000, 2.000000)">
            <g id="Group" sketch:type="MSShapeGroup">
                <path d="M12.431,0.5 L73.569,0.5 L75.607,6.5 L79.683,6.5 L85.797,17.5 L0.203,17.5 L6.317,6.5 L10.393,6.5 L12.431,0.5 Z" id="Shape" stroke="#000000" stroke-width="5"></path>
                <path d="M22.621,96 L63.379,96 L76.626,18 L9.374,18 L22.621,96 Z" id="Shape" stroke="#000000" stroke-width="4"></path>
                <path id="Shape" stroke="#000000" stroke-width="5" d="M10.393,6.5 L21,6.5 L10.393,6.5 L10.393,6.5 Z"></path>
                <g transform="translate(10.000000, 40.000000)" id="Shape">
                    <path d="M0.393,1.052 L33,4.094 L65.607,1.099 L58.689,42 L7.31,42 L0.393,1.052 Z" fill="#000000"></path>
                    <path d="M0.561,1.852 C0.469,1.308 0.842,0.906 1.392,0.959 L32.002,3.903 C32.551,3.956 33.45,3.956 33.999,3.903 L64.609,0.959 C65.159,0.906 65.533,1.308 65.44,1.852 L58.858,40.822 C58.765,41.365 58.238,42 57.687,42 L8.313,42 C7.761,42 7.234,41.365 7.142,40.822 L0.561,1.852 L0.561,1.852 Z" stroke="#000000" stroke-width="4"></path>
                </g>
            </g>
        </g>
    </g>
</svg>