<?xml version="1.0" encoding="UTF-8"?>
<svg width="150px" height="150px" viewBox="0 0 150 150" version="1.1" xmlns="http://www.w3.org/2000/svg" xmlns:xlink="http://www.w3.org/1999/xlink">
    <!-- Generator: Sketch 42 (36781) - http://www.bohemiancoding.com/sketch -->
    <title>cup</title>
    <desc>Created with Sketch.</desc>
    <defs></defs>
    <g id="Page-1" stroke="none" stroke-width="1" fill="none" fill-rule="evenodd">
        <g id="cup" fill-rule="nonzero" fill="#4C4F4F">
            <g id="Group" transform="translate(39.000000, 9.000000)">
                <path d="M1.83365793,50.1414375 L6.14621723,50.1414375 L6.80968789,63.756 L6.14621723,63.756 C5.64861423,63.756 5.3168789,63.9220313 4.98514357,64.2540938 C4.65340824,64.5861563 4.48754057,65.08425 4.48754057,65.4163125 L5.98034956,102.27525 C5.98034956,103.105406 6.80968789,103.935563 7.63902622,103.935563 L8.80009988,103.935563 L10.1270412,127.678031 C10.2929089,130.002469 12.1174532,131.828813 14.4396005,131.828813 L58.5603995,131.828813 C60.8825468,131.828813 62.8729588,130.002469 62.8729588,127.678031 L64.1999001,103.935563 L65.5268414,103.935563 C66.3561798,103.935563 67.1855181,103.271438 67.1855181,102.27525 L68.6783271,65.4163125 C68.6783271,64.9182188 68.5124594,64.5861563 68.1807241,64.2540938 C67.8489888,63.9220313 67.5172534,63.756 67.0196504,63.756 L66.3561798,63.756 L67.0196504,50.1414375 L71.3322097,50.1414375 C72.1615481,50.1414375 72.9908864,49.4773125 72.9908864,48.6471563 C72.9908864,47.4849375 72.9908864,46.3227188 72.6591511,45.1605 C71.8298127,42.504 69.6735331,40.511625 66.8537828,39.8475 C66.1903121,32.3760938 60.5508115,30.2176875 60.3849438,30.2176875 C60.2190762,30.2176875 60.0532085,30.0516563 59.8873408,30.0516563 L11.7857179,30.0516563 C11.4539825,30.0516563 11.2881149,30.0516563 11.1222472,30.2176875 C10.9563795,30.3837188 6.97555556,32.3760938 6.47795256,39.6814688 C4.81927591,39.8475 3.16059925,40.6776563 2.16539326,42.0059063 C1.17018727,43.3341563 0.174981273,45.4925625 0.340848939,48.481125 C0.174981273,49.4773125 1.0043196,50.1414375 1.83365793,50.1414375 Z M59.7214732,127.512 C59.7214732,128.010094 59.2238702,128.508187 58.7262672,128.508187 L14.4396005,128.508187 C13.9419975,128.508187 13.4443945,128.010094 13.4443945,127.512 L12.1174532,103.935563 L60.8825468,103.935563 L59.7214732,127.512 Z M63.8681648,100.614938 L9.13183521,100.614938 L7.63902622,67.076625 L65.1951061,67.076625 L63.8681648,100.614938 Z M63.0388265,63.756 L9.96117353,63.756 L9.29770287,50.1414375 L63.7022971,50.1414375 L63.0388265,63.756 Z M12.1174532,33.3722813 L59.3897378,33.3722813 C60.2190762,33.7043438 62.8729588,35.3646563 63.3705618,39.6814688 L9.6294382,39.6814688 C9.96117353,35.6967188 11.6198502,33.870375 12.1174532,33.3722813 Z M4.65340824,43.9982813 C4.98514357,43.3341563 5.8144819,43.0020938 6.47795256,43.0020938 L65.1951061,43.0020938 C67.1855181,43.0020938 68.8441948,44.3303438 69.3417978,45.9906563 C69.3417978,46.3227188 69.5076654,46.48875 69.5076654,46.8208125 L3.49233458,46.8208125 C3.65820225,45.824625 4.15580524,44.8284375 4.65340824,43.9982813 Z" id="Shape"></path>
                <path d="M30.3628964,25.23675 C31.3581024,25.23675 32.021573,24.572625 32.021573,23.5764375 C32.021573,22.58025 31.3581024,21.916125 30.3628964,21.916125 C28.3724844,21.916125 26.7138077,20.2558125 26.7138077,18.2634375 C26.7138077,16.2710625 28.3724844,14.61075 30.3628964,14.61075 C34.1778527,14.61075 37.3293383,11.4561563 37.3293383,7.6374375 C37.3293383,3.81871875 34.1778527,0.664125 30.3628964,0.664125 C29.3676904,0.664125 28.7042197,1.32825 28.7042197,2.3244375 C28.7042197,3.320625 29.3676904,3.98475 30.3628964,3.98475 C32.3533084,3.98475 34.011985,5.6450625 34.011985,7.6374375 C34.011985,9.6298125 32.3533084,11.290125 30.3628964,11.290125 C26.5479401,11.290125 23.3964544,14.4447188 23.3964544,18.2634375 C23.3964544,22.0821563 26.3820724,25.23675 30.3628964,25.23675 Z" id="Shape"></path>
                <path d="M44.4616479,11.1240938 C40.6466916,11.1240938 37.495206,14.2786875 37.495206,18.0974063 C37.495206,21.916125 40.6466916,25.0707188 44.4616479,25.0707188 C45.4568539,25.0707188 46.1203246,24.4065938 46.1203246,23.4104063 C46.1203246,22.4142188 45.4568539,21.7500938 44.4616479,21.7500938 C42.471236,21.7500938 40.8125593,20.0897813 40.8125593,18.0974063 C40.8125593,16.1050313 42.471236,14.4447188 44.4616479,14.4447188 C48.2766042,14.4447188 51.4280899,11.290125 51.4280899,7.47140625 C51.4280899,3.6526875 48.2766042,0.49809375 44.4616479,0.49809375 C43.4664419,0.49809375 42.8029713,1.16221875 42.8029713,2.15840625 C42.8029713,3.15459375 43.4664419,3.81871875 44.4616479,3.81871875 C46.4520599,3.81871875 48.1107366,5.47903125 48.1107366,7.47140625 C48.1107366,9.46378125 46.4520599,11.1240938 44.4616479,11.1240938 Z" id="Shape"></path>
            </g>
        </g>
    </g>
</svg>