<?xml version="1.0" encoding="UTF-8" standalone="no"?>
<svg width="1024px" height="1024px" viewBox="0 0 1024 1024" version="1.1" xmlns="http://www.w3.org/2000/svg" xmlns:xlink="http://www.w3.org/1999/xlink">
    <!-- Generator: Sketch 3.6.1 (26313) - http://www.bohemiancoding.com/sketch -->
    <title>Desktop</title>
    <desc>Created with Sketch.</desc>
    <defs></defs>
    <g id="Page-1" stroke="none" stroke-width="1" fill="none" fill-rule="evenodd">
        <g id="Desktop" fill="#34495E">
            <path d="M941.637043,258.686069 C854.813329,112.204555 695.125116,14 512.5,14 C329.874884,14 170.186671,112.204555 83.3629569,258.686069 L202.58962,258.686069 L335.511555,472.754597 L468.433489,258.686069 L540.673671,258.686069 L595.576209,258.686069 L832.524005,570.387202 L832.524005,258.686069 L941.637043,258.686069 Z M942.329089,259.857273 C985.967958,333.941492 1011,420.297473 1011,512.5 C1011,787.813948 787.813948,1011 512.5,1011 C237.186052,1011 14,787.813948 14,512.5 C14,420.297473 39.0320416,333.941492 82.6709105,259.857273 L82.6709184,764.929209 L191.753593,764.929209 L191.753593,436.594372 L332.621947,650.6629 L335.511555,650.6629 L477.824713,434.424759 L477.824713,764.929209 L540.673671,764.929209 L602.800227,764.929209 L602.800227,443.103213 L847.694443,764.929209 L942.329082,764.929209 L942.329082,259.857259 Z" id="Combined-Shape"></path>
        </g>
    </g>
</svg>