<?xml version="1.0" encoding="UTF-8"?>
<svg width="150px" height="150px" viewBox="0 0 150 150" version="1.1" xmlns="http://www.w3.org/2000/svg" xmlns:xlink="http://www.w3.org/1999/xlink">
    <!-- Generator: Sketch 42 (36781) - http://www.bohemiancoding.com/sketch -->
    <title>tree</title>
    <desc>Created with Sketch.</desc>
    <defs></defs>
    <g id="Page-1" stroke="none" stroke-width="1" fill="none" fill-rule="evenodd">
        <g id="tree" fill-rule="nonzero" fill="#4C4F4F">
            <path d="M132.328571,75.9186813 C129.542857,76.4769231 125.642857,77.1747253 122.717857,77.5934066 C124.946429,75.7791209 128.428571,73.9648352 130.796429,72.9879121 L129.682143,70.4758242 C128.707143,70.8945055 121.046429,74.1043956 118.4,78.0120879 C117.146429,77.8725275 115.335714,77.5934066 113.525,77.1747253 C111.853571,76.756044 110.321429,76.4769231 109.207143,76.3373626 C119.653571,66.9868132 130.657143,63.7769231 130.796429,63.7769231 L130.1,61.1252747 C129.682143,61.2648352 124.528571,62.6604396 117.842857,66.7076923 C121.325,60.567033 129.125,53.7285714 129.125,53.589011 L127.175,51.6351648 C126.617857,52.0538462 115.475,61.9626374 113.525,69.4989011 C110.6,71.5923077 107.535714,74.1043956 104.471429,77.1747253 C101.267857,78.0120879 97.7857143,78.0120879 94.3035714,78.0120879 C90.6821429,78.0120879 87.2,78.0120879 84.1357143,78.8494505 C87.0607143,72.7087912 90.5428571,69.3593407 92.4928571,67.5450549 C93.3285714,66.7076923 93.8857143,66.1494505 94.3035714,65.5912088 C99.0392857,64.7538462 111.714286,61.543956 113.246429,60.567033 C114.639286,59.7296703 123.832143,50.6582418 126.617857,47.867033 L124.667857,45.9131868 C119.096429,51.4956044 112.689286,57.6362637 111.853571,58.1945055 C110.739286,58.7527473 99.7357143,61.6835165 94.4428571,62.8 C94.3035714,61.8230769 94.025,60.4274725 93.7464286,58.8923077 C94.025,58.6131868 94.4428571,58.3340659 94.7214286,58.0549451 C95.4178571,57.4967033 96.5321429,56.2406593 97.925,54.7054945 C99.875,54.7054945 106.560714,54.4263736 108.789286,53.8681319 C111.296429,53.3098901 119.375,44.6571429 122.717857,41.0285714 L120.628571,39.2142857 C115.614286,44.6571429 109.485714,50.7978022 108.092857,51.2164835 C106.839286,51.4956044 103.217857,51.7747253 100.292857,51.9142857 C102.660714,48.843956 105.028571,44.9362637 105.725,41.3076923 C113.664286,40.0516484 119.932143,32.0967033 120.210714,31.678022 L117.982143,30.0032967 C117.982143,30.1428571 112.271429,37.2604396 105.446429,38.5164835 C105.167857,37.5395604 105.028571,36.4230769 104.889286,35.4461538 C109.207143,33.7714286 115.057143,26.5142857 116.310714,24.8395604 L114.082143,23.1648352 C111.714286,26.2351648 107.535714,30.8406593 104.610714,32.5153846 C104.471429,26.2351648 106.142857,21.210989 106.142857,21.210989 L103.496429,20.2340659 C103.357143,20.6527473 100.014286,30.421978 102.939286,40.1912088 C102.242857,45.9131868 95.6964286,53.3098901 93.05,55.821978 C92.7714286,54.4263736 92.4928571,53.0307692 92.2142857,51.4956044 C91.9357143,49.9604396 91.6571429,48.7043956 91.6571429,48.4252747 C91.6571429,46.7505495 95.975,33.7714286 99.875,22.1879121 L97.3678571,20.9318681 C93.3285714,32.5153846 88.7321429,46.610989 89.0107143,48.4252747 C89.15,48.843956 89.2892857,50.1 89.7071429,51.7747253 C89.9857143,53.3098901 90.4035714,55.5428571 90.8214286,57.6362637 C87.8964286,59.8692308 84.9714286,61.543956 82.8821429,62.6604396 C84.1357143,60.0087912 84.9714286,58.3340659 85.1107143,57.3571429 C85.6678571,54.7054945 85.8071429,51.356044 83.4392857,45.2153846 C83.0214286,44.2384615 82.6035714,42.7032967 82.0464286,40.7494505 C82.325,40.4703297 82.4642857,40.1912088 82.7428571,39.7725275 C88.7321429,30.9802198 92.7714286,25.1186813 93.3285714,23.8626374 C94.4428571,21.6296703 95.2785714,14.3725275 95.4178571,13.5351648 L92.6321429,13.256044 C92.3535714,16.1868132 91.5178571,21.3505495 90.8214286,22.6065934 C90.2642857,23.5835165 85.3892857,30.8406593 81.2107143,36.9813187 C80.7928571,35.3065934 80.375,33.4923077 79.9571429,31.5384615 C87.4785714,24.0021978 88.3142857,13.8142857 88.3142857,13.3956044 L85.5285714,13.256044 C85.5285714,13.3956044 84.8321429,21.6296703 79.1214286,28.3285714 C78.8428571,27.0725275 78.5642857,25.956044 78.2857143,24.8395604 C80.0964286,21.3505495 81.0714286,14.5120879 81.0714286,13.6747253 L78.2857143,13.3956044 C78.1464286,14.6516484 77.7285714,17.3032967 77.0321429,19.6758242 C76.475,16.1868132 76.0571429,13.8142857 76.0571429,13.6747253 L73.2714286,14.232967 C73.4107143,15.0703297 76.6142857,30.5615385 78.9821429,40.0516484 C75.9178571,44.5175824 73.2714286,48.4252747 72.2964286,49.9604396 C70.2071429,53.3098901 68.5357143,59.0318681 67.7,62.8 C64.9142857,56.5197802 63.8,45.3549451 63.6607143,38.7956044 C66.3071429,33.910989 67.4214286,15.2098901 67.5607143,12.9769231 L64.775,12.8373626 C64.3571429,19.9549451 63.2428571,31.3989011 61.85,36.0043956 C60.1785714,34.8879121 56.975,32.7945055 55.3035714,31.678022 C55.025,31.3989011 54.6071429,30.8406593 54.05,29.8637363 C55.025,28.189011 57.5321429,23.7230769 58.3678571,21.4901099 C59.4821429,18.5593407 59.3428571,12.6978022 59.3428571,12 L56.5571429,12.1395604 C56.5571429,13.8142857 56.5571429,18.4197802 55.7214286,20.5131868 C55.025,22.0483516 53.6321429,24.9791209 52.5178571,26.932967 C51.125,24.0021978 49.4535714,19.9549451 48.0607143,16.3263736 L45.4142857,17.3032967 C45.8321429,18.5593407 46.6678571,20.6527473 47.6428571,22.8857143 C45.6928571,21.4901099 44.0214286,20.2340659 43.8821429,20.2340659 L42.35,22.467033 C42.35,22.467033 48.2,26.5142857 50.0107143,28.0494505 C51.4035714,30.8406593 52.7964286,33.2131868 53.7714286,33.910989 C55.7214286,35.167033 59.6214286,37.9582418 60.875,38.7956044 C60.875,40.3307692 61.0142857,41.7263736 61.1535714,44.5175824 L61.1535714,44.5175824 C60.875,47.3087912 56.8357143,54.1472527 54.8857143,57.3571429 L54.4678571,57.9153846 C52.9357143,60.567033 52.5178571,63.3582418 52.5178571,65.5912088 C50.9857143,63.6373626 49.8714286,61.4043956 49.4535714,58.7527473 C49.3142857,57.7758242 49.4535714,55.1241758 49.7321429,52.6120879 C50.15,47.3087912 50.2892857,44.6571429 49.7321429,43.4010989 C48.8964286,41.4472527 41.7928571,26.2351648 41.5142857,25.6769231 L39.0071429,26.932967 C39.0071429,27.0725275 41.5142857,32.3758242 43.8821429,37.2604396 C43.1857143,37.1208791 42.4892857,36.9813187 42.0714286,36.8417582 C41.2357143,36.2835165 39.1464286,32.3758242 37.6142857,29.1659341 L35.1071429,30.2824176 C36.9178571,34.0505495 39.2857143,38.656044 40.9571429,39.3538462 C42.2107143,39.9120879 44.1607143,40.0516484 45.275,40.1912088 C45.6928571,41.0285714 46.1107143,41.8659341 46.3892857,42.5637363 C44.1607143,42.5637363 40.8178571,42.4241758 39.1464286,42.0054945 C38.0321429,41.7263736 35.9428571,37.4 34.6892857,32.7945055 L32.0428571,33.4923077 C32.7392857,36.0043956 34.9678571,43.9593407 38.5892857,44.7967033 C40.9571429,45.3549451 45.4142857,45.3549451 47.5035714,45.4945055 C47.6428571,47.0296703 47.3642857,50.5186813 47.225,52.6120879 C46.9464286,55.5428571 46.8071429,58.0549451 46.9464286,59.310989 C47.225,61.2648352 47.7821429,62.9395604 48.6178571,64.6142857 C47.0857143,64.4747253 44.9964286,64.1956044 42.6285714,63.4978022 C39.425,62.6604396 38.5892857,60.7065934 37.3357143,58.0549451 C36.7785714,56.9384615 36.2214286,55.821978 35.525,54.7054945 C32.8785714,50.6582418 25.9142857,45.7736264 25.6357143,45.6340659 L24.1035714,47.867033 C24.1035714,47.867033 30.9285714,52.6120879 33.2964286,56.2406593 C33.9928571,57.2175824 34.55,58.1945055 34.9678571,59.310989 C35.8035714,60.8461538 36.6392857,62.5208791 37.8928571,63.7769231 C37.0571429,64.1956044 36.0821429,64.7538462 34.6892857,64.1956044 C33.7142857,63.7769231 31.0678571,61.9626374 28.0035714,59.7296703 C27.1678571,55.1241758 23.2678571,50.1 23.1285714,49.9604396 L20.9,51.6351648 C20.9,51.6351648 22.7107143,54.1472527 24.1035714,56.9384615 C22.7107143,55.821978 21.3178571,54.8450549 20.0642857,53.8681319 L18.3928571,56.1010989 C19.6464286,57.078022 30.9285714,65.7307692 33.7142857,66.8472527 C34.55,67.1263736 35.2464286,67.2659341 35.8035714,67.2659341 C37.6142857,67.2659341 39.0071429,66.1494505 39.8428571,65.1725275 C40.4,65.4516484 41.0964286,65.7307692 41.7928571,65.8703297 C45.5535714,66.8472527 48.6178571,66.9868132 50.0107143,66.9868132 C51.2642857,68.6615385 52.6571429,70.0571429 54.4678571,71.5923077 C59.6214286,76.1978022 62.9642857,80.5241758 64.775,83.4549451 C61.0142857,81.7802198 54.3285714,79.1285714 44.0214286,76.0582418 C40.8178571,75.0813187 37.7535714,74.6626374 34.8285714,74.3835165 C33.8535714,71.8714286 28.0035714,69.6384615 17.5571429,67.4054945 L17,70.1967033 C22.7107143,71.3131868 28.0035714,72.9879121 30.65,74.243956 C23.4071429,74.243956 18.2535714,75.6395604 17.8357143,75.7791209 L18.5321429,78.4307692 C18.6714286,78.4307692 24.3821429,76.756044 32.1821429,77.0351648 C29.1178571,78.4307692 23.2678571,79.9659341 18.1142857,81.0824176 L18.6714286,83.8736264 C31.0678571,81.221978 35.2464286,78.989011 36.5,77.4538462 C38.5892857,77.732967 40.8178571,78.1516484 43.1857143,78.8494505 C58.7857143,83.4549451 66.0285714,87.2230769 67.1428571,87.9208791 C67.7,88.4791209 71.1821429,93.0846154 72.0178571,107.738462 C73.1321429,123.22967 71.8785714,127.416484 70.4857143,131.882418 C69.9285714,133.557143 68.1178571,135.371429 66.5857143,136.767033 C66.1678571,137.185714 65.8892857,138.162637 66.1678571,138.162637 L66.5857143,138.162637 L87.0607143,138.162637 L88.7321429,138.162637 C88.8714286,137.325275 88.175,136.627473 87.3392857,136.487912 C85.1107143,136.069231 83.4392857,135.231868 82.6035714,134.254945 C79.8178571,130.486813 79.1214286,109.692308 79.4,98.9461538 C79.5392857,94.2010989 80.2357143,91.4098901 80.5142857,89.456044 C80.6535714,88.8978022 80.7928571,88.3395604 80.7928571,87.9208791 C81.35,85.8274725 81.9071429,84.0131868 82.6035714,82.3384615 C85.8071429,80.6637363 89.8464286,80.6637363 94.3035714,80.6637363 C98.4821429,80.6637363 102.660714,80.6637363 106.7,79.2681319 C107.535714,78.989011 110.739286,79.6868132 112.689286,80.1054945 C115.057143,80.6637363 117.285714,81.0824176 118.817857,81.0824176 C120.489286,81.0824176 130.517857,78.989011 132.607143,78.7098901 L132.328571,75.9186813 L132.328571,75.9186813 Z M91.9357143,64.056044 C91.6571429,64.3351648 91.1,64.8934066 90.6821429,65.4516484 C87.7571429,68.2428571 81.9071429,73.9648352 78.5642857,86.3857143 C77.5892857,83.7340659 76.475,79.4076923 77.0321429,75.2208791 C77.1714286,74.1043956 79.2607143,69.778022 80.9321429,66.289011 C82.6035714,65.7307692 86.9214286,63.7769231 91.3785714,60.567033 C91.6571429,62.1021978 91.7964286,63.3582418 91.9357143,64.056044 L91.9357143,64.056044 Z M74.8035714,51.4956044 C75.6392857,50.2395604 77.5892857,47.1692308 80.0964286,43.6802198 C80.375,44.6571429 80.6535714,45.4945055 80.9321429,46.0527473 C82.8821429,51.2164835 83.0214286,54.0076923 82.4642857,56.5197802 C82.1857143,57.6362637 80.375,61.2648352 78.8428571,64.4747253 C76.1964286,69.9175824 74.525,73.267033 74.3857143,74.8021978 C73.6892857,80.1054945 75.3607143,85.5483516 76.475,88.2 C76.1964286,91.4098901 75.7785714,95.3175824 75.6392857,96.0153846 C75.3607143,97.1318681 73.4107143,91.9681319 72.575,89.5956044 C72.7142857,87.3626374 72.8535714,83.0362637 72.2964286,76.4769231 C72.0178571,72.9879121 71.8785714,70.8945055 70.0678571,66.8472527 C70.2071429,64.8934066 72.0178571,55.821978 74.8035714,51.4956044 L74.8035714,51.4956044 Z M56.4178571,69.6384615 L55.7214286,68.9406593 L55.8607143,68.9406593 C55.8607143,68.9406593 54.3285714,63.7769231 56.975,59.4505495 L57.3928571,58.7527473 C59.0642857,56.1010989 60.7357143,53.1703297 61.9892857,50.5186813 C62.6857143,55.821978 63.9392857,61.2648352 65.8892857,65.032967 C68.9535714,71.1736264 69.0928571,72.8483516 69.3714286,76.756044 C69.65,80.8032967 69.65,83.8736264 69.65,86.2461538 C69.65,86.1065934 69.5107143,86.1065934 69.5107143,86.1065934 C68.8142857,84.5714286 65.3321429,77.5934066 56.4178571,69.6384615 L56.4178571,69.6384615 Z" id="Shape"></path>
        </g>
    </g>
</svg>