<?xml version="1.0" encoding="UTF-8" standalone="no"?>
<svg width="84px" height="91px" viewBox="0 0 84 91" version="1.1" xmlns="http://www.w3.org/2000/svg" xmlns:xlink="http://www.w3.org/1999/xlink" xmlns:sketch="http://www.bohemiancoding.com/sketch/ns">
    <!-- Generator: Sketch 3.5.1 (25234) - http://www.bohemiancoding.com/sketch -->
    <title>tree</title>
    <desc>Created with Sketch.</desc>
    <defs></defs>
    <g id="Page-1" stroke="none" stroke-width="1" fill="none" fill-rule="evenodd" sketch:type="MSPage">
        <g id="tree" sketch:type="MSLayerGroup" fill="#000000">
            <path d="M83.4,46.4 C81.4,46.8 78.6,47.3 76.5,47.6 C78.1,46.3 80.6,45 82.3,44.3 L81.5,42.5 C80.8,42.8 75.3,45.1 73.4,47.9 C72.5,47.8 71.2,47.6 69.9,47.3 C68.7,47 67.6,46.8 66.8,46.7 C74.3,40 82.2,37.7 82.3,37.7 L81.8,35.8 C81.5,35.9 77.8,36.9 73,39.8 C75.5,35.4 81.1,30.5 81.1,30.4 L79.7,29 C79.3,29.3 71.3,36.4 69.9,41.8 C67.8,43.3 65.6,45.1 63.4,47.3 C61.1,47.9 58.6,47.9 56.1,47.9 C53.5,47.9 51,47.9 48.8,48.5 C50.9,44.1 53.4,41.7 54.8,40.4 C55.4,39.8 55.8,39.4 56.1,39 C59.5,38.4 68.6,36.1 69.7,35.4 C70.7,34.8 77.3,28.3 79.3,26.3 L77.9,24.9 C73.9,28.9 69.3,33.3 68.7,33.7 C67.9,34.1 60,36.2 56.2,37 C56.1,36.3 55.9,35.3 55.7,34.2 C55.9,34 56.2,33.8 56.4,33.6 C56.9,33.2 57.7,32.3 58.7,31.2 C60.1,31.2 64.9,31 66.5,30.6 C68.3,30.2 74.1,24 76.5,21.4 L75,20.1 C71.4,24 67,28.4 66,28.7 C65.1,28.9 62.5,29.1 60.4,29.2 C62.1,27 63.8,24.2 64.3,21.6 C70,20.7 74.5,15 74.7,14.7 L73.1,13.5 C73.1,13.6 69,18.7 64.1,19.6 C63.9,18.9 63.8,18.1 63.7,17.4 C66.8,16.2 71,11 71.9,9.8 L70.3,8.6 C68.6,10.8 65.6,14.1 63.5,15.3 C63.4,10.8 64.6,7.2 64.6,7.2 L62.7,6.5 C62.6,6.8 60.2,13.8 62.3,20.8 C61.8,24.9 57.1,30.2 55.2,32 C55,31 54.8,30 54.6,28.9 C54.4,27.8 54.2,26.9 54.2,26.7 C54.2,25.5 57.3,16.2 60.1,7.9 L58.3,7 C55.4,15.3 52.1,25.4 52.3,26.7 C52.4,27 52.5,27.9 52.8,29.1 C53,30.2 53.3,31.8 53.6,33.3 C51.5,34.9 49.4,36.1 47.9,36.9 C48.8,35 49.4,33.8 49.5,33.1 C49.9,31.2 50,28.8 48.3,24.4 C48,23.7 47.7,22.6 47.3,21.2 C47.5,21 47.6,20.8 47.8,20.5 C52.1,14.2 55,10 55.4,9.1 C56.2,7.5 56.8,2.3 56.9,1.7 L54.9,1.5 C54.7,3.6 54.1,7.3 53.6,8.2 C53.2,8.9 49.7,14.1 46.7,18.5 C46.4,17.3 46.1,16 45.8,14.6 C51.2,9.2 51.8,1.9 51.8,1.6 L49.8,1.5 C49.8,1.6 49.3,7.5 45.2,12.3 C45,11.4 44.8,10.6 44.6,9.8 C45.9,7.3 46.6,2.4 46.6,1.8 L44.6,1.6 C44.5,2.5 44.2,4.4 43.7,6.1 C43.3,3.6 43,1.9 43,1.8 L41,2.2 C41.1,2.8 43.4,13.9 45.1,20.7 C42.9,23.9 41,26.7 40.3,27.8 C38.8,30.2 37.6,34.3 37,37 C35,32.5 34.2,24.5 34.1,19.8 C36,16.3 36.8,2.9 36.9,1.3 L34.9,1.2 C34.6,6.3 33.8,14.5 32.8,17.8 C31.6,17 29.3,15.5 28.1,14.7 C27.9,14.5 27.6,14.1 27.2,13.4 C27.9,12.2 29.7,9 30.3,7.4 C31.1,5.3 31,1.1 31,0.6 L29,0.7 C29,1.9 29,5.2 28.4,6.7 C27.9,7.8 26.9,9.9 26.1,11.3 C25.1,9.2 23.9,6.3 22.9,3.7 L21,4.4 C21.3,5.3 21.9,6.8 22.6,8.4 C21.2,7.4 20,6.5 19.9,6.5 L18.8,8.1 C18.8,8.1 23,11 24.3,12.1 C25.3,14.1 26.3,15.8 27,16.3 C28.4,17.2 31.2,19.2 32.1,19.8 C32.1,20.9 32.2,21.9 32.3,23.9 L32.3,23.9 C32.1,25.9 29.2,30.8 27.8,33.1 L27.5,33.5 C26.4,35.4 26.1,37.4 26.1,39 C25,37.6 24.2,36 23.9,34.1 C23.8,33.4 23.9,31.5 24.1,29.7 C24.4,25.9 24.5,24 24.1,23.1 C23.5,21.7 18.4,10.8 18.2,10.4 L16.4,11.3 C16.4,11.4 18.2,15.2 19.9,18.7 C19.4,18.6 18.9,18.5 18.6,18.4 C18,18 16.5,15.2 15.4,12.9 L13.6,13.7 C14.9,16.4 16.6,19.7 17.8,20.2 C18.7,20.6 20.1,20.7 20.9,20.8 C21.2,21.4 21.5,22 21.7,22.5 C20.1,22.5 17.7,22.4 16.5,22.1 C15.7,21.9 14.2,18.8 13.3,15.5 L11.4,16 C11.9,17.8 13.5,23.5 16.1,24.1 C17.8,24.5 21,24.5 22.5,24.6 C22.6,25.7 22.4,28.2 22.3,29.7 C22.1,31.8 22,33.6 22.1,34.5 C22.3,35.9 22.7,37.1 23.3,38.3 C22.2,38.2 20.7,38 19,37.5 C16.7,36.9 16.1,35.5 15.2,33.6 C14.8,32.8 14.4,32 13.9,31.2 C12,28.3 7,24.8 6.8,24.7 L5.7,26.3 C5.7,26.3 10.6,29.7 12.3,32.3 C12.8,33 13.2,33.7 13.5,34.5 C14.1,35.6 14.7,36.8 15.6,37.7 C15,38 14.3,38.4 13.3,38 C12.6,37.7 10.7,36.4 8.5,34.8 C7.9,31.5 5.1,27.9 5,27.8 L3.4,29 C3.4,29 4.7,30.8 5.7,32.8 C4.7,32 3.7,31.3 2.8,30.6 L1.6,32.2 C2.5,32.9 10.6,39.1 12.6,39.9 C13.2,40.1 13.7,40.2 14.1,40.2 C15.4,40.2 16.4,39.4 17,38.7 C17.4,38.9 17.9,39.1 18.4,39.2 C21.1,39.9 23.3,40 24.3,40 C25.2,41.2 26.2,42.2 27.5,43.3 C31.2,46.6 33.6,49.7 34.9,51.8 C32.2,50.6 27.4,48.7 20,46.5 C17.7,45.8 15.5,45.5 13.4,45.3 C12.7,43.5 8.5,41.9 1,40.3 L0.6,42.3 C4.7,43.1 8.5,44.3 10.4,45.2 C5.2,45.2 1.5,46.2 1.2,46.3 L1.7,48.2 C1.8,48.2 5.9,47 11.5,47.2 C9.3,48.2 5.1,49.3 1.4,50.1 L1.8,52.1 C10.7,50.2 13.7,48.6 14.6,47.5 C16.1,47.7 17.7,48 19.4,48.5 C30.6,51.8 35.8,54.5 36.6,55 C37,55.4 39.5,58.7 40.1,69.2 C40.9,80.3 40,83.3 39,86.5 C38.6,87.7 37.3,89 36.2,90 C35.9,90.3 35.7,91 35.9,91 L36.2,91 L50.9,91 L52.1,91 C52.2,90.4 51.7,89.9 51.1,89.8 C49.5,89.5 48.3,88.9 47.7,88.2 C45.7,85.5 45.2,70.6 45.4,62.9 C45.5,59.5 46,57.5 46.2,56.1 C46.3,55.7 46.4,55.3 46.4,55 C46.8,53.5 47.2,52.2 47.7,51 C50,49.8 52.9,49.8 56.1,49.8 C59.1,49.8 62.1,49.8 65,48.8 C65.6,48.6 67.9,49.1 69.3,49.4 C71,49.8 72.6,50.1 73.7,50.1 C74.9,50.1 82.1,48.6 83.6,48.4 L83.4,46.4 L83.4,46.4 Z M54.4,37.9 C54.2,38.1 53.8,38.5 53.5,38.9 C51.4,40.9 47.2,45 44.8,53.9 C44.1,52 43.3,48.9 43.7,45.9 C43.8,45.1 45.3,42 46.5,39.5 C47.7,39.1 50.8,37.7 54,35.4 C54.2,36.5 54.3,37.4 54.4,37.9 L54.4,37.9 Z M42.1,28.9 C42.7,28 44.1,25.8 45.9,23.3 C46.1,24 46.3,24.6 46.5,25 C47.9,28.7 48,30.7 47.6,32.5 C47.4,33.3 46.1,35.9 45,38.2 C43.1,42.1 41.9,44.5 41.8,45.6 C41.3,49.4 42.5,53.3 43.3,55.2 C43.1,57.5 42.8,60.3 42.7,60.8 C42.5,61.6 41.1,57.9 40.5,56.2 C40.6,54.6 40.7,51.5 40.3,46.8 C40.1,44.3 40,42.8 38.7,39.9 C38.8,38.5 40.1,32 42.1,28.9 L42.1,28.9 Z M28.9,41.9 L28.4,41.4 L28.5,41.4 C28.5,41.4 27.4,37.7 29.3,34.6 L29.6,34.1 C30.8,32.2 32,30.1 32.9,28.2 C33.4,32 34.3,35.9 35.7,38.6 C37.9,43 38,44.2 38.2,47 C38.4,49.9 38.4,52.1 38.4,53.8 C38.4,53.7 38.3,53.7 38.3,53.7 C37.8,52.6 35.3,47.6 28.9,41.9 L28.9,41.9 Z" id="Shape" sketch:type="MSShapeGroup"></path>
        </g>
    </g>
</svg>